<svg width="1200" height="1200" viewBox="0 0 1200 1200" fill="none" xmlns="http://www.w3.org/2000/svg">
<g clip-path="url(#clip0_120_59)">
<rect width="1200" height="1200" fill="#03A6FF"/>
<path d="M109 850V555C109 512.333 119.333 473.667 140 439C160.667 404.333 190 376.667 228 356C266.667 335.333 312.333 325 365 325C418.333 325 463.667 335.333 501 356C539 376.667 568 404.333 588 439C608 473.667 618 512.333 618 555V850H463V559C463 541 458.667 524.667 450 510C441.333 494.667 429.333 482.667 414 474C399.333 464.667 382.667 460 364 460C344.667 460 327.333 464.667 312 474C297.333 482.667 285.667 494.667 277 510C268.333 524.667 264 541 264 559V850H109Z" fill="white"/>
<rect x="718" y="325" width="136" height="525" fill="white"/>
<rect x="954" y="325" width="136" height="525" fill="white"/>
</g>
<defs>
<clipPath id="clip0_120_59">
<rect width="1200" height="1200" fill="white"/>
</clipPath>
</defs>
</svg>
